<svg aria-hidden="true" style="position: absolute; width: 0; height: 0; overflow: hidden;" version="1.1" xmlns="http://www.w3.org/2000/svg" xmlns:xlink="http://www.w3.org/1999/xlink">
<defs>
<symbol id="icon-burger" viewBox="0 0 36 32">
<path d="M0 31.007v-3.31h35.421v3.31h-35.421zM0 13.352h35.421v3.31h-35.421v-3.31zM0 0h35.421v2.317h-35.421v-2.317z"></path>
</symbol>
<symbol id="icon-dribble" viewBox="0 0 32 32">
<path fill="#fff" style="fill: var(--color1, #fff)" d="M22.204 29.757c-0.013 0.006-0.024 0.012-0.037 0.018-1.967 0.95-4.16 1.498-6.482 1.498-8.334 0-15.114-6.861-15.114-15.295 0-6.313 3.799-11.744 9.204-14.076 0.024-0.010 0.045-0.022 0.069-0.029 1.798-0.765 3.771-1.19 5.841-1.19 8.335 0 15.116 6.861 15.116 15.296 0 6.070-3.521 11.31-8.596 13.779zM22.524 27.411c3.214-1.976 5.518-5.297 6.176-9.183-0.891-0.261-4.346-1.107-8.713-0.229 1.582 4.116 2.263 7.569 2.537 9.412zM20.74 28.34c-0.188-1.462-0.822-5.267-2.611-9.874-0.792 0.242-1.603 0.54-2.427 0.918-5.48 2.513-7.676 6.189-8.161 7.116 2.248 1.786 5.073 2.861 8.145 2.861 1.791 0 3.496-0.366 5.055-1.020zM2.461 15.978c0 3.565 1.393 6.799 3.645 9.201 0.899-1.544 3.419-5.064 8.817-7.537 0.842-0.387 1.669-0.692 2.479-0.95-0.353-0.805-0.739-1.626-1.166-2.459-0.090-0.174-0.172-0.323-0.26-0.492-4.463 1.413-8.328 1.743-10.893 1.743-1.137 0-2.008-0.063-2.579-0.119-0.009 0.205-0.044 0.403-0.044 0.612zM2.726 13.462c1.687 0.157 6.465 0.355 12.34-1.436-2.493-4.568-4.353-7.068-5.16-8.067-3.68 1.82-6.386 5.32-7.181 9.503zM15.685 2.595c-1.375 0-2.702 0.215-3.95 0.612 1.014 1.313 2.824 3.892 5.155 8.202 5.184-1.97 6.79-4.68 7.229-5.729-2.291-1.925-5.23-3.085-8.434-3.085zM25.542 7.087c-0.854 1.592-2.918 4.132-7.757 6.022 0.044 0.084 0.083 0.157 0.127 0.242 0.498 0.968 0.928 1.911 1.329 2.838 4.532-1.009 8.198-0.284 9.649 0.105 0.003-0.106 0.022-0.209 0.022-0.316 0-3.414-1.281-6.524-3.369-8.891z"></path>
</symbol>
<symbol id="icon-facebook" viewBox="0 0 17 32">
<path fill="#fff" style="fill: var(--color1, #fff)" d="M10.823 2.728c0.119 0 0.188 0.004 0.188 0.004h2.615l-0.015 3.015h-2.596c-1.429 0-1.396 1.224-1.396 1.224v4.777h5.056l-0.705 3.009h-4.368v15.061h-3l-0.003-15.061h-3.987l-0.008-3.009h3.997c0 0 0-3.685 0-4.684 0-4.083 3.38-4.336 4.221-4.336zM13.625 2.732h0.004zM10.823 0.719v0c-0.72 0-2.127 0.12-3.459 0.925-1.263 0.761-2.765 2.32-2.765 5.42v2.675h-1.995c-0.532 0-1.041 0.213-1.419 0.591-0.375 0.379-0.585 0.891-0.583 1.425l0.007 3.011c0.004 1.105 0.9 2.001 2.003 2.001h1.984l0.003 13.052c0 1.111 0.896 2.009 2.003 2.009h3c1.105 0 2.003-0.899 2.003-2.009v-13.052h2.365c0.888 0 1.671-0.588 1.921-1.443l0.705-3.009c0.179-0.608 0.060-1.264-0.319-1.771-0.377-0.507-0.972-0.805-1.603-0.805h-3.055v-1.983h1.991c1.103 0 1.999-0.895 2.003-2.001l0.015-2.911c0.001-0.039 0.003-0.075 0.003-0.112 0-1.109-0.895-2.008-2.001-2.008h-2.563c-0.057-0.004-0.14-0.005-0.244-0.005v0z"></path>
</symbol>
<symbol id="icon-twitter" viewBox="0 0 39 32">
<path fill="#fff" style="fill: var(--color1, #fff)" d="M26.179 2.914c1.959 0 3.725 0.8 4.97 2.083 1.549-0.298 3.010-0.844 4.322-1.598-0.509 1.538-1.588 2.829-2.993 3.646 1.374-0.162 2.69-0.514 3.911-1.041-0.915 1.32-2.067 2.484-3.397 3.414 0.012 0.281 0.019 0.568 0.019 0.851 0 8.714-6.848 18.76-19.372 18.76-3.843 0-7.424-1.095-10.435-2.964 0.532 0.062 1.073 0.093 1.624 0.093 3.188 0 6.125-1.053 8.456-2.823-2.981-0.052-5.497-1.959-6.36-4.578 0.414 0.077 0.842 0.12 1.282 0.12 0.618 0 1.221-0.081 1.792-0.232-3.114-0.603-5.462-3.267-5.462-6.464 0-0.029 0-0.056 0-0.084 0.92 0.495 1.969 0.792 3.085 0.825-1.827-1.184-3.030-3.198-3.030-5.487 0-1.209 0.337-2.341 0.923-3.311 3.357 3.983 8.374 6.609 14.033 6.887-0.116-0.482-0.177-0.99-0.177-1.502 0-3.643 3.048-6.594 6.809-6.594zM36.389 6.004h0.005zM26.179 0.549c-4.652 0-8.505 3.394-9.098 7.778-3.806-0.763-7.267-2.776-9.755-5.726-0.451-0.537-1.117-0.844-1.812-0.844-0.062 0-0.125 0.003-0.187 0.007-0.763 0.061-1.448 0.485-1.843 1.139-0.827 1.368-1.263 2.936-1.263 4.532 0 1.066 0.192 2.105 0.556 3.077-0.387 0.429-0.611 0.992-0.611 1.585v0.084c0 2.317 0.918 4.467 2.442 6.078-0.088 0.404-0.069 0.83 0.066 1.238 0.525 1.595 1.482 2.971 2.722 4.019-0.832 0.184-1.693 0.278-2.568 0.278-0.465 0-0.916-0.025-1.342-0.077-0.096-0.010-0.189-0.017-0.283-0.017-0.995 0-1.898 0.627-2.233 1.581-0.369 1.046 0.040 2.208 0.984 2.792 3.498 2.174 7.54 3.323 11.687 3.323 13.475 0 21.581-10.533 21.74-20.822 1.103-0.911 2.077-1.965 2.904-3.146 0.301-0.396 0.48-0.889 0.48-1.423 0-0.805-0.403-1.517-1.017-1.944 0.266-0.911-0.039-1.896-0.778-2.498-0.433-0.35-0.963-0.531-1.496-0.531-0.408 0-0.817 0.104-1.184 0.317-0.783 0.451-1.62 0.807-2.503 1.064-1.595-1.197-3.572-1.864-5.605-1.864v0z"></path>
</symbol>
</defs>
</svg>
